G04 #@! TF.GenerationSoftware,KiCad,Pcbnew,(5.0.1-3-g963ef8bb5)*
G04 #@! TF.CreationDate,2018-12-25T15:27:32+01:00*
G04 #@! TF.ProjectId,smarttrimix,736D6172747472696D69782E6B696361,rev?*
G04 #@! TF.SameCoordinates,Original*
G04 #@! TF.FileFunction,Legend,Bot*
G04 #@! TF.FilePolarity,Positive*
%FSLAX46Y46*%
G04 Gerber Fmt 4.6, Leading zero omitted, Abs format (unit mm)*
G04 Created by KiCad (PCBNEW (5.0.1-3-g963ef8bb5)) date 2018 December 25, Tuesday 15:27:32*
%MOMM*%
%LPD*%
G01*
G04 APERTURE LIST*
%ADD10C,0.150000*%
%ADD11C,0.250000*%
%ADD12C,0.120000*%
G04 APERTURE END LIST*
D10*
X63968380Y-55499333D02*
X63968380Y-56118380D01*
X64349333Y-55785047D01*
X64349333Y-55927904D01*
X64396952Y-56023142D01*
X64444571Y-56070761D01*
X64539809Y-56118380D01*
X64777904Y-56118380D01*
X64873142Y-56070761D01*
X64920761Y-56023142D01*
X64968380Y-55927904D01*
X64968380Y-55642190D01*
X64920761Y-55546952D01*
X64873142Y-55499333D01*
X63968380Y-56404095D02*
X64968380Y-56737428D01*
X63968380Y-57070761D01*
X64016000Y-58689809D02*
X63968380Y-58594571D01*
X63968380Y-58451714D01*
X64016000Y-58308857D01*
X64111238Y-58213619D01*
X64206476Y-58166000D01*
X64396952Y-58118380D01*
X64539809Y-58118380D01*
X64730285Y-58166000D01*
X64825523Y-58213619D01*
X64920761Y-58308857D01*
X64968380Y-58451714D01*
X64968380Y-58546952D01*
X64920761Y-58689809D01*
X64873142Y-58737428D01*
X64539809Y-58737428D01*
X64539809Y-58546952D01*
X64968380Y-59166000D02*
X63968380Y-59166000D01*
X64968380Y-59737428D01*
X63968380Y-59737428D01*
X64968380Y-60213619D02*
X63968380Y-60213619D01*
X63968380Y-60451714D01*
X64016000Y-60594571D01*
X64111238Y-60689809D01*
X64206476Y-60737428D01*
X64396952Y-60785047D01*
X64539809Y-60785047D01*
X64730285Y-60737428D01*
X64825523Y-60689809D01*
X64920761Y-60594571D01*
X64968380Y-60451714D01*
X64968380Y-60213619D01*
X59966904Y-98512380D02*
X59633571Y-99512380D01*
X59300238Y-98512380D01*
X58966904Y-99512380D02*
X58966904Y-98845714D01*
X58966904Y-98512380D02*
X59014523Y-98560000D01*
X58966904Y-98607619D01*
X58919285Y-98560000D01*
X58966904Y-98512380D01*
X58966904Y-98607619D01*
X58490714Y-98845714D02*
X58490714Y-99512380D01*
X58490714Y-98940952D02*
X58443095Y-98893333D01*
X58347857Y-98845714D01*
X58205000Y-98845714D01*
X58109761Y-98893333D01*
X58062142Y-98988571D01*
X58062142Y-99512380D01*
X57157380Y-99464761D02*
X57252619Y-99512380D01*
X57443095Y-99512380D01*
X57538333Y-99464761D01*
X57585952Y-99417142D01*
X57633571Y-99321904D01*
X57633571Y-99036190D01*
X57585952Y-98940952D01*
X57538333Y-98893333D01*
X57443095Y-98845714D01*
X57252619Y-98845714D01*
X57157380Y-98893333D01*
X56347857Y-99464761D02*
X56443095Y-99512380D01*
X56633571Y-99512380D01*
X56728809Y-99464761D01*
X56776428Y-99369523D01*
X56776428Y-98988571D01*
X56728809Y-98893333D01*
X56633571Y-98845714D01*
X56443095Y-98845714D01*
X56347857Y-98893333D01*
X56300238Y-98988571D01*
X56300238Y-99083809D01*
X56776428Y-99179047D01*
X55871666Y-98845714D02*
X55871666Y-99512380D01*
X55871666Y-98940952D02*
X55824047Y-98893333D01*
X55728809Y-98845714D01*
X55585952Y-98845714D01*
X55490714Y-98893333D01*
X55443095Y-98988571D01*
X55443095Y-99512380D01*
X55109761Y-98845714D02*
X54728809Y-98845714D01*
X54966904Y-98512380D02*
X54966904Y-99369523D01*
X54919285Y-99464761D01*
X54824047Y-99512380D01*
X54728809Y-99512380D01*
X53633571Y-99512380D02*
X53633571Y-98512380D01*
X53300238Y-99226666D01*
X52966904Y-98512380D01*
X52966904Y-99512380D01*
X52538333Y-99226666D02*
X52062142Y-99226666D01*
X52633571Y-99512380D02*
X52300238Y-98512380D01*
X51966904Y-99512380D01*
X51633571Y-99512380D02*
X51633571Y-98512380D01*
X51062142Y-99512380D01*
X51062142Y-98512380D01*
X50395476Y-98512380D02*
X50205000Y-98512380D01*
X50109761Y-98560000D01*
X50014523Y-98655238D01*
X49966904Y-98845714D01*
X49966904Y-99179047D01*
X50014523Y-99369523D01*
X50109761Y-99464761D01*
X50205000Y-99512380D01*
X50395476Y-99512380D01*
X50490714Y-99464761D01*
X50585952Y-99369523D01*
X50633571Y-99179047D01*
X50633571Y-98845714D01*
X50585952Y-98655238D01*
X50490714Y-98560000D01*
X50395476Y-98512380D01*
X49538333Y-98512380D02*
X49538333Y-99321904D01*
X49490714Y-99417142D01*
X49443095Y-99464761D01*
X49347857Y-99512380D01*
X49157380Y-99512380D01*
X49062142Y-99464761D01*
X49014523Y-99417142D01*
X48966904Y-99321904D01*
X48966904Y-98512380D01*
X48490714Y-99512380D02*
X48490714Y-98512380D01*
X47919285Y-99512380D02*
X48347857Y-98940952D01*
X47919285Y-98512380D02*
X48490714Y-99083809D01*
X47490714Y-99512380D02*
X47490714Y-98512380D01*
X47062142Y-99226666D02*
X46585952Y-99226666D01*
X47157380Y-99512380D02*
X46824047Y-98512380D01*
X46490714Y-99512380D01*
X46157380Y-99512380D02*
X46157380Y-98512380D01*
X45585952Y-99512380D01*
X45585952Y-98512380D01*
X72604380Y-63318285D02*
X73604380Y-63651619D01*
X72604380Y-63984952D01*
X73509142Y-64889714D02*
X73556761Y-64842095D01*
X73604380Y-64699238D01*
X73604380Y-64604000D01*
X73556761Y-64461142D01*
X73461523Y-64365904D01*
X73366285Y-64318285D01*
X73175809Y-64270666D01*
X73032952Y-64270666D01*
X72842476Y-64318285D01*
X72747238Y-64365904D01*
X72652000Y-64461142D01*
X72604380Y-64604000D01*
X72604380Y-64699238D01*
X72652000Y-64842095D01*
X72699619Y-64889714D01*
X73509142Y-65889714D02*
X73556761Y-65842095D01*
X73604380Y-65699238D01*
X73604380Y-65604000D01*
X73556761Y-65461142D01*
X73461523Y-65365904D01*
X73366285Y-65318285D01*
X73175809Y-65270666D01*
X73032952Y-65270666D01*
X72842476Y-65318285D01*
X72747238Y-65365904D01*
X72652000Y-65461142D01*
X72604380Y-65604000D01*
X72604380Y-65699238D01*
X72652000Y-65842095D01*
X72699619Y-65889714D01*
X72652000Y-67604000D02*
X72604380Y-67508761D01*
X72604380Y-67365904D01*
X72652000Y-67223047D01*
X72747238Y-67127809D01*
X72842476Y-67080190D01*
X73032952Y-67032571D01*
X73175809Y-67032571D01*
X73366285Y-67080190D01*
X73461523Y-67127809D01*
X73556761Y-67223047D01*
X73604380Y-67365904D01*
X73604380Y-67461142D01*
X73556761Y-67604000D01*
X73509142Y-67651619D01*
X73175809Y-67651619D01*
X73175809Y-67461142D01*
X73604380Y-68080190D02*
X72604380Y-68080190D01*
X73604380Y-68651619D01*
X72604380Y-68651619D01*
X73604380Y-69127809D02*
X72604380Y-69127809D01*
X72604380Y-69365904D01*
X72652000Y-69508761D01*
X72747238Y-69604000D01*
X72842476Y-69651619D01*
X73032952Y-69699238D01*
X73175809Y-69699238D01*
X73366285Y-69651619D01*
X73461523Y-69604000D01*
X73556761Y-69508761D01*
X73604380Y-69365904D01*
X73604380Y-69127809D01*
X73556761Y-70842095D02*
X73604380Y-70984952D01*
X73604380Y-71223047D01*
X73556761Y-71318285D01*
X73509142Y-71365904D01*
X73413904Y-71413523D01*
X73318666Y-71413523D01*
X73223428Y-71365904D01*
X73175809Y-71318285D01*
X73128190Y-71223047D01*
X73080571Y-71032571D01*
X73032952Y-70937333D01*
X72985333Y-70889714D01*
X72890095Y-70842095D01*
X72794857Y-70842095D01*
X72699619Y-70889714D01*
X72652000Y-70937333D01*
X72604380Y-71032571D01*
X72604380Y-71270666D01*
X72652000Y-71413523D01*
X73509142Y-72413523D02*
X73556761Y-72365904D01*
X73604380Y-72223047D01*
X73604380Y-72127809D01*
X73556761Y-71984952D01*
X73461523Y-71889714D01*
X73366285Y-71842095D01*
X73175809Y-71794476D01*
X73032952Y-71794476D01*
X72842476Y-71842095D01*
X72747238Y-71889714D01*
X72652000Y-71984952D01*
X72604380Y-72127809D01*
X72604380Y-72223047D01*
X72652000Y-72365904D01*
X72699619Y-72413523D01*
X73604380Y-73318285D02*
X73604380Y-72842095D01*
X72604380Y-72842095D01*
X73556761Y-74365904D02*
X73604380Y-74508761D01*
X73604380Y-74746857D01*
X73556761Y-74842095D01*
X73509142Y-74889714D01*
X73413904Y-74937333D01*
X73318666Y-74937333D01*
X73223428Y-74889714D01*
X73175809Y-74842095D01*
X73128190Y-74746857D01*
X73080571Y-74556380D01*
X73032952Y-74461142D01*
X72985333Y-74413523D01*
X72890095Y-74365904D01*
X72794857Y-74365904D01*
X72699619Y-74413523D01*
X72652000Y-74461142D01*
X72604380Y-74556380D01*
X72604380Y-74794476D01*
X72652000Y-74937333D01*
X73604380Y-75365904D02*
X72604380Y-75365904D01*
X72604380Y-75604000D01*
X72652000Y-75746857D01*
X72747238Y-75842095D01*
X72842476Y-75889714D01*
X73032952Y-75937333D01*
X73175809Y-75937333D01*
X73366285Y-75889714D01*
X73461523Y-75842095D01*
X73556761Y-75746857D01*
X73604380Y-75604000D01*
X73604380Y-75365904D01*
X73318666Y-76318285D02*
X73318666Y-76794476D01*
X73604380Y-76223047D02*
X72604380Y-76556380D01*
X73604380Y-76889714D01*
X72652000Y-90162571D02*
X72604380Y-90067333D01*
X72604380Y-89924476D01*
X72652000Y-89781619D01*
X72747238Y-89686380D01*
X72842476Y-89638761D01*
X73032952Y-89591142D01*
X73175809Y-89591142D01*
X73366285Y-89638761D01*
X73461523Y-89686380D01*
X73556761Y-89781619D01*
X73604380Y-89924476D01*
X73604380Y-90019714D01*
X73556761Y-90162571D01*
X73509142Y-90210190D01*
X73175809Y-90210190D01*
X73175809Y-90019714D01*
X73604380Y-90638761D02*
X72604380Y-90638761D01*
X73604380Y-91210190D01*
X72604380Y-91210190D01*
X73604380Y-91686380D02*
X72604380Y-91686380D01*
X72604380Y-91924476D01*
X72652000Y-92067333D01*
X72747238Y-92162571D01*
X72842476Y-92210190D01*
X73032952Y-92257809D01*
X73175809Y-92257809D01*
X73366285Y-92210190D01*
X73461523Y-92162571D01*
X73556761Y-92067333D01*
X73604380Y-91924476D01*
X73604380Y-91686380D01*
X72604380Y-93353047D02*
X72604380Y-93972095D01*
X72985333Y-93638761D01*
X72985333Y-93781619D01*
X73032952Y-93876857D01*
X73080571Y-93924476D01*
X73175809Y-93972095D01*
X73413904Y-93972095D01*
X73509142Y-93924476D01*
X73556761Y-93876857D01*
X73604380Y-93781619D01*
X73604380Y-93495904D01*
X73556761Y-93400666D01*
X73509142Y-93353047D01*
X72604380Y-94257809D02*
X73604380Y-94591142D01*
X72604380Y-94924476D01*
X73604380Y-96019714D02*
X72604380Y-96019714D01*
X72604380Y-96400666D01*
X72652000Y-96495904D01*
X72699619Y-96543523D01*
X72794857Y-96591142D01*
X72937714Y-96591142D01*
X73032952Y-96543523D01*
X73080571Y-96495904D01*
X73128190Y-96400666D01*
X73128190Y-96019714D01*
X73604380Y-97019714D02*
X72937714Y-97019714D01*
X73128190Y-97019714D02*
X73032952Y-97067333D01*
X72985333Y-97114952D01*
X72937714Y-97210190D01*
X72937714Y-97305428D01*
X73604380Y-97638761D02*
X72604380Y-97638761D01*
X72985333Y-97638761D02*
X72937714Y-97734000D01*
X72937714Y-97924476D01*
X72985333Y-98019714D01*
X73032952Y-98067333D01*
X73128190Y-98114952D01*
X73413904Y-98114952D01*
X73509142Y-98067333D01*
X73556761Y-98019714D01*
X73604380Y-97924476D01*
X73604380Y-97734000D01*
X73556761Y-97638761D01*
X67270380Y-70167904D02*
X68270380Y-70501238D01*
X67270380Y-70834571D01*
X68175142Y-71739333D02*
X68222761Y-71691714D01*
X68270380Y-71548857D01*
X68270380Y-71453619D01*
X68222761Y-71310761D01*
X68127523Y-71215523D01*
X68032285Y-71167904D01*
X67841809Y-71120285D01*
X67698952Y-71120285D01*
X67508476Y-71167904D01*
X67413238Y-71215523D01*
X67318000Y-71310761D01*
X67270380Y-71453619D01*
X67270380Y-71548857D01*
X67318000Y-71691714D01*
X67365619Y-71739333D01*
X68175142Y-72739333D02*
X68222761Y-72691714D01*
X68270380Y-72548857D01*
X68270380Y-72453619D01*
X68222761Y-72310761D01*
X68127523Y-72215523D01*
X68032285Y-72167904D01*
X67841809Y-72120285D01*
X67698952Y-72120285D01*
X67508476Y-72167904D01*
X67413238Y-72215523D01*
X67318000Y-72310761D01*
X67270380Y-72453619D01*
X67270380Y-72548857D01*
X67318000Y-72691714D01*
X67365619Y-72739333D01*
X67318000Y-74453619D02*
X67270380Y-74358380D01*
X67270380Y-74215523D01*
X67318000Y-74072666D01*
X67413238Y-73977428D01*
X67508476Y-73929809D01*
X67698952Y-73882190D01*
X67841809Y-73882190D01*
X68032285Y-73929809D01*
X68127523Y-73977428D01*
X68222761Y-74072666D01*
X68270380Y-74215523D01*
X68270380Y-74310761D01*
X68222761Y-74453619D01*
X68175142Y-74501238D01*
X67841809Y-74501238D01*
X67841809Y-74310761D01*
X68270380Y-74929809D02*
X67270380Y-74929809D01*
X68270380Y-75501238D01*
X67270380Y-75501238D01*
X68270380Y-75977428D02*
X67270380Y-75977428D01*
X67270380Y-76215523D01*
X67318000Y-76358380D01*
X67413238Y-76453619D01*
X67508476Y-76501238D01*
X67698952Y-76548857D01*
X67841809Y-76548857D01*
X68032285Y-76501238D01*
X68127523Y-76453619D01*
X68222761Y-76358380D01*
X68270380Y-76215523D01*
X68270380Y-75977428D01*
X73080571Y-51935619D02*
X73128190Y-52078476D01*
X73175809Y-52126095D01*
X73271047Y-52173714D01*
X73413904Y-52173714D01*
X73509142Y-52126095D01*
X73556761Y-52078476D01*
X73604380Y-51983238D01*
X73604380Y-51602285D01*
X72604380Y-51602285D01*
X72604380Y-51935619D01*
X72652000Y-52030857D01*
X72699619Y-52078476D01*
X72794857Y-52126095D01*
X72890095Y-52126095D01*
X72985333Y-52078476D01*
X73032952Y-52030857D01*
X73080571Y-51935619D01*
X73080571Y-51602285D01*
X73318666Y-52554666D02*
X73318666Y-53030857D01*
X73604380Y-52459428D02*
X72604380Y-52792761D01*
X73604380Y-53126095D01*
X72604380Y-53316571D02*
X72604380Y-53888000D01*
X73604380Y-53602285D02*
X72604380Y-53602285D01*
X72652000Y-55507047D02*
X72604380Y-55411809D01*
X72604380Y-55268952D01*
X72652000Y-55126095D01*
X72747238Y-55030857D01*
X72842476Y-54983238D01*
X73032952Y-54935619D01*
X73175809Y-54935619D01*
X73366285Y-54983238D01*
X73461523Y-55030857D01*
X73556761Y-55126095D01*
X73604380Y-55268952D01*
X73604380Y-55364190D01*
X73556761Y-55507047D01*
X73509142Y-55554666D01*
X73175809Y-55554666D01*
X73175809Y-55364190D01*
X73604380Y-55983238D02*
X72604380Y-55983238D01*
X73604380Y-56554666D01*
X72604380Y-56554666D01*
X73604380Y-57030857D02*
X72604380Y-57030857D01*
X72604380Y-57268952D01*
X72652000Y-57411809D01*
X72747238Y-57507047D01*
X72842476Y-57554666D01*
X73032952Y-57602285D01*
X73175809Y-57602285D01*
X73366285Y-57554666D01*
X73461523Y-57507047D01*
X73556761Y-57411809D01*
X73604380Y-57268952D01*
X73604380Y-57030857D01*
X72604380Y-58649904D02*
X73604380Y-58983238D01*
X72604380Y-59316571D01*
X73509142Y-60221333D02*
X73556761Y-60173714D01*
X73604380Y-60030857D01*
X73604380Y-59935619D01*
X73556761Y-59792761D01*
X73461523Y-59697523D01*
X73366285Y-59649904D01*
X73175809Y-59602285D01*
X73032952Y-59602285D01*
X72842476Y-59649904D01*
X72747238Y-59697523D01*
X72652000Y-59792761D01*
X72604380Y-59935619D01*
X72604380Y-60030857D01*
X72652000Y-60173714D01*
X72699619Y-60221333D01*
X73509142Y-61221333D02*
X73556761Y-61173714D01*
X73604380Y-61030857D01*
X73604380Y-60935619D01*
X73556761Y-60792761D01*
X73461523Y-60697523D01*
X73366285Y-60649904D01*
X73175809Y-60602285D01*
X73032952Y-60602285D01*
X72842476Y-60649904D01*
X72747238Y-60697523D01*
X72652000Y-60792761D01*
X72604380Y-60935619D01*
X72604380Y-61030857D01*
X72652000Y-61173714D01*
X72699619Y-61221333D01*
D11*
X50645142Y-83918976D02*
X50716571Y-84061833D01*
X50716571Y-84299928D01*
X50645142Y-84395166D01*
X50573714Y-84442785D01*
X50430857Y-84490404D01*
X50288000Y-84490404D01*
X50145142Y-84442785D01*
X50073714Y-84395166D01*
X50002285Y-84299928D01*
X49930857Y-84109452D01*
X49859428Y-84014214D01*
X49788000Y-83966595D01*
X49645142Y-83918976D01*
X49502285Y-83918976D01*
X49359428Y-83966595D01*
X49288000Y-84014214D01*
X49216571Y-84109452D01*
X49216571Y-84347547D01*
X49288000Y-84490404D01*
X50716571Y-84918976D02*
X49716571Y-84918976D01*
X49859428Y-84918976D02*
X49788000Y-84966595D01*
X49716571Y-85061833D01*
X49716571Y-85204690D01*
X49788000Y-85299928D01*
X49930857Y-85347547D01*
X50716571Y-85347547D01*
X49930857Y-85347547D02*
X49788000Y-85395166D01*
X49716571Y-85490404D01*
X49716571Y-85633261D01*
X49788000Y-85728500D01*
X49930857Y-85776119D01*
X50716571Y-85776119D01*
X50716571Y-86680880D02*
X49930857Y-86680880D01*
X49788000Y-86633261D01*
X49716571Y-86538023D01*
X49716571Y-86347547D01*
X49788000Y-86252309D01*
X50645142Y-86680880D02*
X50716571Y-86585642D01*
X50716571Y-86347547D01*
X50645142Y-86252309D01*
X50502285Y-86204690D01*
X50359428Y-86204690D01*
X50216571Y-86252309D01*
X50145142Y-86347547D01*
X50145142Y-86585642D01*
X50073714Y-86680880D01*
X50716571Y-87157071D02*
X49716571Y-87157071D01*
X50002285Y-87157071D02*
X49859428Y-87204690D01*
X49788000Y-87252309D01*
X49716571Y-87347547D01*
X49716571Y-87442785D01*
X49716571Y-87633261D02*
X49716571Y-88014214D01*
X49216571Y-87776119D02*
X50502285Y-87776119D01*
X50645142Y-87823738D01*
X50716571Y-87918976D01*
X50716571Y-88014214D01*
X49216571Y-88204690D02*
X49216571Y-88776119D01*
X50716571Y-88490404D02*
X49216571Y-88490404D01*
X50716571Y-89109452D02*
X49716571Y-89109452D01*
X50002285Y-89109452D02*
X49859428Y-89157071D01*
X49788000Y-89204690D01*
X49716571Y-89299928D01*
X49716571Y-89395166D01*
X50716571Y-89728500D02*
X49716571Y-89728500D01*
X49216571Y-89728500D02*
X49288000Y-89680880D01*
X49359428Y-89728500D01*
X49288000Y-89776119D01*
X49216571Y-89728500D01*
X49359428Y-89728500D01*
X50716571Y-90204690D02*
X49716571Y-90204690D01*
X49859428Y-90204690D02*
X49788000Y-90252309D01*
X49716571Y-90347547D01*
X49716571Y-90490404D01*
X49788000Y-90585642D01*
X49930857Y-90633261D01*
X50716571Y-90633261D01*
X49930857Y-90633261D02*
X49788000Y-90680880D01*
X49716571Y-90776119D01*
X49716571Y-90918976D01*
X49788000Y-91014214D01*
X49930857Y-91061833D01*
X50716571Y-91061833D01*
X50716571Y-91538023D02*
X49716571Y-91538023D01*
X49216571Y-91538023D02*
X49288000Y-91490404D01*
X49359428Y-91538023D01*
X49288000Y-91585642D01*
X49216571Y-91538023D01*
X49359428Y-91538023D01*
X50716571Y-91918976D02*
X49716571Y-92442785D01*
X49716571Y-91918976D02*
X50716571Y-92442785D01*
X49216571Y-93442785D02*
X50716571Y-93776119D01*
X49216571Y-94109452D01*
X50716571Y-94966595D02*
X50716571Y-94395166D01*
X50716571Y-94680880D02*
X49216571Y-94680880D01*
X49430857Y-94585642D01*
X49573714Y-94490404D01*
X49645142Y-94395166D01*
X50573714Y-95395166D02*
X50645142Y-95442785D01*
X50716571Y-95395166D01*
X50645142Y-95347547D01*
X50573714Y-95395166D01*
X50716571Y-95395166D01*
X49216571Y-96061833D02*
X49216571Y-96157071D01*
X49288000Y-96252309D01*
X49359428Y-96299928D01*
X49502285Y-96347547D01*
X49788000Y-96395166D01*
X50145142Y-96395166D01*
X50430857Y-96347547D01*
X50573714Y-96299928D01*
X50645142Y-96252309D01*
X50716571Y-96157071D01*
X50716571Y-96061833D01*
X50645142Y-95966595D01*
X50573714Y-95918976D01*
X50430857Y-95871357D01*
X50145142Y-95823738D01*
X49788000Y-95823738D01*
X49502285Y-95871357D01*
X49359428Y-95918976D01*
X49288000Y-95966595D01*
X49216571Y-96061833D01*
D12*
G04 #@! TO.C,J23*
X65278000Y-70806000D02*
X63948000Y-70806000D01*
X63948000Y-70806000D02*
X63948000Y-72136000D01*
X63948000Y-73406000D02*
X63948000Y-96326000D01*
X66608000Y-96326000D02*
X63948000Y-96326000D01*
X66608000Y-73406000D02*
X66608000Y-96326000D01*
X66608000Y-73406000D02*
X63948000Y-73406000D01*
G04 #@! TO.C,TP1*
X68010000Y-98044000D02*
G75*
G03X68010000Y-98044000I-700000J0D01*
G01*
G04 #@! TO.C,TP2*
X64962000Y-98044000D02*
G75*
G03X64962000Y-98044000I-700000J0D01*
G01*
G04 #@! TO.C,TP3*
X71566000Y-77724000D02*
G75*
G03X71566000Y-77724000I-700000J0D01*
G01*
G04 #@! TO.C,TP4*
X71566000Y-87630000D02*
G75*
G03X71566000Y-87630000I-700000J0D01*
G01*
G04 #@! TO.C,J2*
D10*
X51641333Y-50506380D02*
X51641333Y-51220666D01*
X51688952Y-51363523D01*
X51784190Y-51458761D01*
X51927047Y-51506380D01*
X52022285Y-51506380D01*
X51212761Y-50601619D02*
X51165142Y-50554000D01*
X51069904Y-50506380D01*
X50831809Y-50506380D01*
X50736571Y-50554000D01*
X50688952Y-50601619D01*
X50641333Y-50696857D01*
X50641333Y-50792095D01*
X50688952Y-50934952D01*
X51260380Y-51506380D01*
X50641333Y-51506380D01*
X66277857Y-50887380D02*
X65944523Y-51887380D01*
X65611190Y-50887380D01*
X65135000Y-51887380D02*
X65230238Y-51839761D01*
X65277857Y-51792142D01*
X65325476Y-51696904D01*
X65325476Y-51411190D01*
X65277857Y-51315952D01*
X65230238Y-51268333D01*
X65135000Y-51220714D01*
X64992142Y-51220714D01*
X64896904Y-51268333D01*
X64849285Y-51315952D01*
X64801666Y-51411190D01*
X64801666Y-51696904D01*
X64849285Y-51792142D01*
X64896904Y-51839761D01*
X64992142Y-51887380D01*
X65135000Y-51887380D01*
X63944523Y-51220714D02*
X63944523Y-51887380D01*
X64373095Y-51220714D02*
X64373095Y-51744523D01*
X64325476Y-51839761D01*
X64230238Y-51887380D01*
X64087380Y-51887380D01*
X63992142Y-51839761D01*
X63944523Y-51792142D01*
X63611190Y-51220714D02*
X63230238Y-51220714D01*
X63468333Y-50887380D02*
X63468333Y-51744523D01*
X63420714Y-51839761D01*
X63325476Y-51887380D01*
X63230238Y-51887380D01*
X62896904Y-51506428D02*
X62135000Y-51506428D01*
X62515952Y-51887380D02*
X62515952Y-51125476D01*
X66785857Y-64095380D02*
X66452523Y-65095380D01*
X66119190Y-64095380D01*
X65643000Y-65095380D02*
X65738238Y-65047761D01*
X65785857Y-65000142D01*
X65833476Y-64904904D01*
X65833476Y-64619190D01*
X65785857Y-64523952D01*
X65738238Y-64476333D01*
X65643000Y-64428714D01*
X65500142Y-64428714D01*
X65404904Y-64476333D01*
X65357285Y-64523952D01*
X65309666Y-64619190D01*
X65309666Y-64904904D01*
X65357285Y-65000142D01*
X65404904Y-65047761D01*
X65500142Y-65095380D01*
X65643000Y-65095380D01*
X64452523Y-64428714D02*
X64452523Y-65095380D01*
X64881095Y-64428714D02*
X64881095Y-64952523D01*
X64833476Y-65047761D01*
X64738238Y-65095380D01*
X64595380Y-65095380D01*
X64500142Y-65047761D01*
X64452523Y-65000142D01*
X64119190Y-64428714D02*
X63738238Y-64428714D01*
X63976333Y-64095380D02*
X63976333Y-64952523D01*
X63928714Y-65047761D01*
X63833476Y-65095380D01*
X63738238Y-65095380D01*
X63404904Y-64714428D02*
X62643000Y-64714428D01*
X53585857Y-52030380D02*
X53252523Y-53030380D01*
X52919190Y-52030380D01*
X52585857Y-53030380D02*
X52585857Y-52363714D01*
X52585857Y-52030380D02*
X52633476Y-52078000D01*
X52585857Y-52125619D01*
X52538238Y-52078000D01*
X52585857Y-52030380D01*
X52585857Y-52125619D01*
X52109666Y-52363714D02*
X52109666Y-53030380D01*
X52109666Y-52458952D02*
X52062047Y-52411333D01*
X51966809Y-52363714D01*
X51823952Y-52363714D01*
X51728714Y-52411333D01*
X51681095Y-52506571D01*
X51681095Y-53030380D01*
X51204904Y-52649428D02*
X50443000Y-52649428D01*
X50823952Y-53030380D02*
X50823952Y-52268476D01*
X51807857Y-61047380D02*
X51474523Y-62047380D01*
X51141190Y-61047380D01*
X50807857Y-62047380D02*
X50807857Y-61380714D01*
X50807857Y-61047380D02*
X50855476Y-61095000D01*
X50807857Y-61142619D01*
X50760238Y-61095000D01*
X50807857Y-61047380D01*
X50807857Y-61142619D01*
X50331666Y-61380714D02*
X50331666Y-62047380D01*
X50331666Y-61475952D02*
X50284047Y-61428333D01*
X50188809Y-61380714D01*
X50045952Y-61380714D01*
X49950714Y-61428333D01*
X49903095Y-61523571D01*
X49903095Y-62047380D01*
X49426904Y-61666428D02*
X48665000Y-61666428D01*
G04 #@! TO.C,J23*
X66087523Y-68818380D02*
X66087523Y-69532666D01*
X66135142Y-69675523D01*
X66230380Y-69770761D01*
X66373238Y-69818380D01*
X66468476Y-69818380D01*
X65658952Y-68913619D02*
X65611333Y-68866000D01*
X65516095Y-68818380D01*
X65278000Y-68818380D01*
X65182761Y-68866000D01*
X65135142Y-68913619D01*
X65087523Y-69008857D01*
X65087523Y-69104095D01*
X65135142Y-69246952D01*
X65706571Y-69818380D01*
X65087523Y-69818380D01*
X64754190Y-68818380D02*
X64135142Y-68818380D01*
X64468476Y-69199333D01*
X64325619Y-69199333D01*
X64230380Y-69246952D01*
X64182761Y-69294571D01*
X64135142Y-69389809D01*
X64135142Y-69627904D01*
X64182761Y-69723142D01*
X64230380Y-69770761D01*
X64325619Y-69818380D01*
X64611333Y-69818380D01*
X64706571Y-69770761D01*
X64754190Y-69723142D01*
X67730666Y-80954952D02*
X67730666Y-81431142D01*
X68016380Y-80859714D02*
X67016380Y-81193047D01*
X68016380Y-81526380D01*
X68016380Y-81859714D02*
X67016380Y-81859714D01*
X67016380Y-82097809D01*
X67064000Y-82240666D01*
X67159238Y-82335904D01*
X67254476Y-82383523D01*
X67444952Y-82431142D01*
X67587809Y-82431142D01*
X67778285Y-82383523D01*
X67873523Y-82335904D01*
X67968761Y-82240666D01*
X68016380Y-82097809D01*
X68016380Y-81859714D01*
X67968761Y-82812095D02*
X68016380Y-82954952D01*
X68016380Y-83193047D01*
X67968761Y-83288285D01*
X67921142Y-83335904D01*
X67825904Y-83383523D01*
X67730666Y-83383523D01*
X67635428Y-83335904D01*
X67587809Y-83288285D01*
X67540190Y-83193047D01*
X67492571Y-83002571D01*
X67444952Y-82907333D01*
X67397333Y-82859714D01*
X67302095Y-82812095D01*
X67206857Y-82812095D01*
X67111619Y-82859714D01*
X67064000Y-82907333D01*
X67016380Y-83002571D01*
X67016380Y-83240666D01*
X67064000Y-83383523D01*
X68016380Y-84335904D02*
X68016380Y-83764476D01*
X68016380Y-84050190D02*
X67016380Y-84050190D01*
X67159238Y-83954952D01*
X67254476Y-83859714D01*
X67302095Y-83764476D01*
X68016380Y-85288285D02*
X68016380Y-84716857D01*
X68016380Y-85002571D02*
X67016380Y-85002571D01*
X67159238Y-84907333D01*
X67254476Y-84812095D01*
X67302095Y-84716857D01*
X68016380Y-86240666D02*
X68016380Y-85669238D01*
X68016380Y-85954952D02*
X67016380Y-85954952D01*
X67159238Y-85859714D01*
X67254476Y-85764476D01*
X67302095Y-85669238D01*
X67016380Y-87145428D02*
X67016380Y-86669238D01*
X67492571Y-86621619D01*
X67444952Y-86669238D01*
X67397333Y-86764476D01*
X67397333Y-87002571D01*
X67444952Y-87097809D01*
X67492571Y-87145428D01*
X67587809Y-87193047D01*
X67825904Y-87193047D01*
X67921142Y-87145428D01*
X67968761Y-87097809D01*
X68016380Y-87002571D01*
X68016380Y-86764476D01*
X67968761Y-86669238D01*
X67921142Y-86621619D01*
G04 #@! TO.C,TP1*
X68770333Y-99766380D02*
X68770333Y-98766380D01*
X68770333Y-99242571D02*
X68198904Y-99242571D01*
X68198904Y-99766380D02*
X68198904Y-98766380D01*
X67341761Y-99718761D02*
X67437000Y-99766380D01*
X67627476Y-99766380D01*
X67722714Y-99718761D01*
X67770333Y-99623523D01*
X67770333Y-99242571D01*
X67722714Y-99147333D01*
X67627476Y-99099714D01*
X67437000Y-99099714D01*
X67341761Y-99147333D01*
X67294142Y-99242571D01*
X67294142Y-99337809D01*
X67770333Y-99433047D01*
X66865571Y-99385428D02*
X66103666Y-99385428D01*
G04 #@! TO.C,TP2*
X65214333Y-99893380D02*
X65214333Y-98893380D01*
X65214333Y-99369571D02*
X64642904Y-99369571D01*
X64642904Y-99893380D02*
X64642904Y-98893380D01*
X63785761Y-99845761D02*
X63881000Y-99893380D01*
X64071476Y-99893380D01*
X64166714Y-99845761D01*
X64214333Y-99750523D01*
X64214333Y-99369571D01*
X64166714Y-99274333D01*
X64071476Y-99226714D01*
X63881000Y-99226714D01*
X63785761Y-99274333D01*
X63738142Y-99369571D01*
X63738142Y-99464809D01*
X64214333Y-99560047D01*
X63309571Y-99512428D02*
X62547666Y-99512428D01*
X62928619Y-99893380D02*
X62928619Y-99131476D01*
G04 #@! TO.C,TP3*
X71969380Y-77549523D02*
X71969380Y-77740000D01*
X72017000Y-77835238D01*
X72112238Y-77930476D01*
X72302714Y-77978095D01*
X72636047Y-77978095D01*
X72826523Y-77930476D01*
X72921761Y-77835238D01*
X72969380Y-77740000D01*
X72969380Y-77549523D01*
X72921761Y-77454285D01*
X72826523Y-77359047D01*
X72636047Y-77311428D01*
X72302714Y-77311428D01*
X72112238Y-77359047D01*
X72017000Y-77454285D01*
X71969380Y-77549523D01*
X72064619Y-78359047D02*
X72017000Y-78406666D01*
X71969380Y-78501904D01*
X71969380Y-78740000D01*
X72017000Y-78835238D01*
X72064619Y-78882857D01*
X72159857Y-78930476D01*
X72255095Y-78930476D01*
X72397952Y-78882857D01*
X72969380Y-78311428D01*
X72969380Y-78930476D01*
X72588428Y-79359047D02*
X72588428Y-80120952D01*
G04 #@! TO.C,TP4*
X71969380Y-85931523D02*
X71969380Y-86122000D01*
X72017000Y-86217238D01*
X72112238Y-86312476D01*
X72302714Y-86360095D01*
X72636047Y-86360095D01*
X72826523Y-86312476D01*
X72921761Y-86217238D01*
X72969380Y-86122000D01*
X72969380Y-85931523D01*
X72921761Y-85836285D01*
X72826523Y-85741047D01*
X72636047Y-85693428D01*
X72302714Y-85693428D01*
X72112238Y-85741047D01*
X72017000Y-85836285D01*
X71969380Y-85931523D01*
X72064619Y-86741047D02*
X72017000Y-86788666D01*
X71969380Y-86883904D01*
X71969380Y-87122000D01*
X72017000Y-87217238D01*
X72064619Y-87264857D01*
X72159857Y-87312476D01*
X72255095Y-87312476D01*
X72397952Y-87264857D01*
X72969380Y-86693428D01*
X72969380Y-87312476D01*
X72588428Y-87741047D02*
X72588428Y-88502952D01*
X72969380Y-88122000D02*
X72207476Y-88122000D01*
G04 #@! TD*
M02*
