G04 #@! TF.GenerationSoftware,KiCad,Pcbnew,(5.0.1-3-g963ef8bb5)*
G04 #@! TF.CreationDate,2018-12-25T15:27:32+01:00*
G04 #@! TF.ProjectId,smarttrimix,736D6172747472696D69782E6B696361,rev?*
G04 #@! TF.SameCoordinates,Original*
G04 #@! TF.FileFunction,Copper,L1,Top,Signal*
G04 #@! TF.FilePolarity,Positive*
%FSLAX46Y46*%
G04 Gerber Fmt 4.6, Leading zero omitted, Abs format (unit mm)*
G04 Created by KiCad (PCBNEW (5.0.1-3-g963ef8bb5)) date 2018 December 25, Tuesday 15:27:32*
%MOMM*%
%LPD*%
G01*
G04 APERTURE LIST*
G04 #@! TA.AperFunction,ComponentPad*
%ADD10R,1.524000X1.524000*%
G04 #@! TD*
G04 #@! TA.AperFunction,ComponentPad*
%ADD11C,1.524000*%
G04 #@! TD*
G04 #@! TA.AperFunction,ComponentPad*
%ADD12O,1.700000X1.700000*%
G04 #@! TD*
G04 #@! TA.AperFunction,ComponentPad*
%ADD13R,1.700000X1.700000*%
G04 #@! TD*
G04 #@! TA.AperFunction,ComponentPad*
%ADD14O,1.600000X1.600000*%
G04 #@! TD*
G04 #@! TA.AperFunction,ComponentPad*
%ADD15C,1.600000*%
G04 #@! TD*
G04 #@! TA.AperFunction,ComponentPad*
%ADD16O,2.000000X1.700000*%
G04 #@! TD*
G04 #@! TA.AperFunction,Conductor*
%ADD17C,0.150000*%
G04 #@! TD*
G04 #@! TA.AperFunction,ComponentPad*
%ADD18C,1.700000*%
G04 #@! TD*
G04 #@! TA.AperFunction,ComponentPad*
%ADD19C,1.676400*%
G04 #@! TD*
G04 #@! TA.AperFunction,ComponentPad*
%ADD20R,1.676400X1.676400*%
G04 #@! TD*
G04 #@! TA.AperFunction,ComponentPad*
%ADD21O,1.950000X1.700000*%
G04 #@! TD*
G04 #@! TA.AperFunction,ComponentPad*
%ADD22C,1.000000*%
G04 #@! TD*
G04 #@! TA.AperFunction,ComponentPad*
%ADD23R,1.600000X1.600000*%
G04 #@! TD*
G04 #@! TA.AperFunction,Conductor*
%ADD24C,0.250000*%
G04 #@! TD*
G04 APERTURE END LIST*
D10*
G04 #@! TO.P,J2,4*
G04 #@! TO.N,+VDC*
X49276000Y-53340000D03*
G04 #@! TO.P,J2,3*
G04 #@! TO.N,VDDA*
X67818000Y-53340000D03*
D11*
G04 #@! TO.P,J2,2*
G04 #@! TO.N,GND*
X67818000Y-63246000D03*
G04 #@! TO.P,J2,1*
X49276000Y-63246000D03*
D10*
G04 #@! TO.P,J2,4*
G04 #@! TO.N,+VDC*
X49276000Y-51689000D03*
G04 #@! TO.P,J2,3*
G04 #@! TO.N,VDDA*
X67818000Y-51689000D03*
D11*
G04 #@! TO.P,J2,2*
G04 #@! TO.N,GND*
X67818000Y-64897000D03*
G04 #@! TO.P,J2,1*
X49276000Y-64897000D03*
G04 #@! TD*
D12*
G04 #@! TO.P,J23,10*
G04 #@! TO.N,AIN3*
X65278000Y-94996000D03*
G04 #@! TO.P,J23,9*
G04 #@! TO.N,AIN2*
X65278000Y-92456000D03*
G04 #@! TO.P,J23,8*
G04 #@! TO.N,AIN1*
X65278000Y-89916000D03*
G04 #@! TO.P,J23,7*
G04 #@! TO.N,AIN0*
X65278000Y-87376000D03*
G04 #@! TO.P,J23,6*
G04 #@! TO.N,Net-(J23-Pad6)*
X65278000Y-84836000D03*
G04 #@! TO.P,J23,5*
G04 #@! TO.N,Net-(J23-Pad5)*
X65278000Y-82296000D03*
G04 #@! TO.P,J23,4*
G04 #@! TO.N,SDA*
X65278000Y-79756000D03*
G04 #@! TO.P,J23,3*
G04 #@! TO.N,SCL*
X65278000Y-77216000D03*
G04 #@! TO.P,J23,2*
G04 #@! TO.N,GND*
X65278000Y-74676000D03*
D13*
G04 #@! TO.P,J23,1*
G04 #@! TO.N,VCC*
X65278000Y-72136000D03*
G04 #@! TD*
D14*
G04 #@! TO.P,R2,2*
G04 #@! TO.N,VDDA*
X56896000Y-93853000D03*
D15*
G04 #@! TO.P,R2,1*
G04 #@! TO.N,Net-(R2-Pad1)*
X56896000Y-83693000D03*
G04 #@! TD*
D14*
G04 #@! TO.P,R5,2*
G04 #@! TO.N,Net-(R2-Pad1)*
X53086000Y-83693000D03*
D15*
G04 #@! TO.P,R5,1*
G04 #@! TO.N,Net-(R3-Pad2)*
X53086000Y-93853000D03*
G04 #@! TD*
D16*
G04 #@! TO.P,J22,2*
G04 #@! TO.N,AIN0*
X70866000Y-81320000D03*
D17*
G04 #@! TD*
G04 #@! TO.N,AIN1*
G04 #@! TO.C,J22*
G36*
X71640504Y-82971204D02*
X71664773Y-82974804D01*
X71688571Y-82980765D01*
X71711671Y-82989030D01*
X71733849Y-82999520D01*
X71754893Y-83012133D01*
X71774598Y-83026747D01*
X71792777Y-83043223D01*
X71809253Y-83061402D01*
X71823867Y-83081107D01*
X71836480Y-83102151D01*
X71846970Y-83124329D01*
X71855235Y-83147429D01*
X71861196Y-83171227D01*
X71864796Y-83195496D01*
X71866000Y-83220000D01*
X71866000Y-84420000D01*
X71864796Y-84444504D01*
X71861196Y-84468773D01*
X71855235Y-84492571D01*
X71846970Y-84515671D01*
X71836480Y-84537849D01*
X71823867Y-84558893D01*
X71809253Y-84578598D01*
X71792777Y-84596777D01*
X71774598Y-84613253D01*
X71754893Y-84627867D01*
X71733849Y-84640480D01*
X71711671Y-84650970D01*
X71688571Y-84659235D01*
X71664773Y-84665196D01*
X71640504Y-84668796D01*
X71616000Y-84670000D01*
X70116000Y-84670000D01*
X70091496Y-84668796D01*
X70067227Y-84665196D01*
X70043429Y-84659235D01*
X70020329Y-84650970D01*
X69998151Y-84640480D01*
X69977107Y-84627867D01*
X69957402Y-84613253D01*
X69939223Y-84596777D01*
X69922747Y-84578598D01*
X69908133Y-84558893D01*
X69895520Y-84537849D01*
X69885030Y-84515671D01*
X69876765Y-84492571D01*
X69870804Y-84468773D01*
X69867204Y-84444504D01*
X69866000Y-84420000D01*
X69866000Y-83220000D01*
X69867204Y-83195496D01*
X69870804Y-83171227D01*
X69876765Y-83147429D01*
X69885030Y-83124329D01*
X69895520Y-83102151D01*
X69908133Y-83081107D01*
X69922747Y-83061402D01*
X69939223Y-83043223D01*
X69957402Y-83026747D01*
X69977107Y-83012133D01*
X69998151Y-82999520D01*
X70020329Y-82989030D01*
X70043429Y-82980765D01*
X70067227Y-82974804D01*
X70091496Y-82971204D01*
X70116000Y-82970000D01*
X71616000Y-82970000D01*
X71640504Y-82971204D01*
X71640504Y-82971204D01*
G37*
D18*
G04 #@! TO.P,J22,1*
G04 #@! TO.N,AIN1*
X70866000Y-83820000D03*
G04 #@! TD*
D19*
G04 #@! TO.P,U1,8*
G04 #@! TO.N,VCC*
X58547000Y-69977000D03*
G04 #@! TO.P,U1,7*
G04 #@! TO.N,Net-(A1-Pad7)*
X58547000Y-72517000D03*
G04 #@! TO.P,U1,6*
G04 #@! TO.N,Net-(R3-Pad2)*
X58547000Y-75057000D03*
G04 #@! TO.P,U1,5*
G04 #@! TO.N,AIN2*
X58547000Y-77597000D03*
G04 #@! TO.P,U1,4*
G04 #@! TO.N,GND*
X50927000Y-77597000D03*
G04 #@! TO.P,U1,3*
G04 #@! TO.N,Net-(R2-Pad1)*
X50927000Y-75057000D03*
G04 #@! TO.P,U1,2*
G04 #@! TO.N,Net-(A1-Pad6)*
X50927000Y-72517000D03*
D20*
G04 #@! TO.P,U1,1*
G04 #@! TO.N,Net-(A1-Pad5)*
X50927000Y-69977000D03*
G04 #@! TD*
D14*
G04 #@! TO.P,R3,2*
G04 #@! TO.N,Net-(R3-Pad2)*
X48006000Y-97282000D03*
D15*
G04 #@! TO.P,R3,1*
G04 #@! TO.N,GND*
X58166000Y-97282000D03*
G04 #@! TD*
D14*
G04 #@! TO.P,R6,2*
G04 #@! TO.N,VCC*
X53086000Y-54610000D03*
D15*
G04 #@! TO.P,R6,1*
G04 #@! TO.N,Net-(A1-Pad5)*
X53086000Y-64770000D03*
G04 #@! TD*
D14*
G04 #@! TO.P,R7,2*
G04 #@! TO.N,VCC*
X57150000Y-54610000D03*
D15*
G04 #@! TO.P,R7,1*
G04 #@! TO.N,Net-(A1-Pad7)*
X57150000Y-64770000D03*
G04 #@! TD*
D21*
G04 #@! TO.P,J24,4*
G04 #@! TO.N,VCC*
X71120000Y-66414000D03*
G04 #@! TO.P,J24,3*
G04 #@! TO.N,GND*
X71120000Y-68914000D03*
G04 #@! TO.P,J24,2*
G04 #@! TO.N,SCL*
X71120000Y-71414000D03*
D17*
G04 #@! TD*
G04 #@! TO.N,SDA*
G04 #@! TO.C,J24*
G36*
X71869504Y-73065204D02*
X71893773Y-73068804D01*
X71917571Y-73074765D01*
X71940671Y-73083030D01*
X71962849Y-73093520D01*
X71983893Y-73106133D01*
X72003598Y-73120747D01*
X72021777Y-73137223D01*
X72038253Y-73155402D01*
X72052867Y-73175107D01*
X72065480Y-73196151D01*
X72075970Y-73218329D01*
X72084235Y-73241429D01*
X72090196Y-73265227D01*
X72093796Y-73289496D01*
X72095000Y-73314000D01*
X72095000Y-74514000D01*
X72093796Y-74538504D01*
X72090196Y-74562773D01*
X72084235Y-74586571D01*
X72075970Y-74609671D01*
X72065480Y-74631849D01*
X72052867Y-74652893D01*
X72038253Y-74672598D01*
X72021777Y-74690777D01*
X72003598Y-74707253D01*
X71983893Y-74721867D01*
X71962849Y-74734480D01*
X71940671Y-74744970D01*
X71917571Y-74753235D01*
X71893773Y-74759196D01*
X71869504Y-74762796D01*
X71845000Y-74764000D01*
X70395000Y-74764000D01*
X70370496Y-74762796D01*
X70346227Y-74759196D01*
X70322429Y-74753235D01*
X70299329Y-74744970D01*
X70277151Y-74734480D01*
X70256107Y-74721867D01*
X70236402Y-74707253D01*
X70218223Y-74690777D01*
X70201747Y-74672598D01*
X70187133Y-74652893D01*
X70174520Y-74631849D01*
X70164030Y-74609671D01*
X70155765Y-74586571D01*
X70149804Y-74562773D01*
X70146204Y-74538504D01*
X70145000Y-74514000D01*
X70145000Y-73314000D01*
X70146204Y-73289496D01*
X70149804Y-73265227D01*
X70155765Y-73241429D01*
X70164030Y-73218329D01*
X70174520Y-73196151D01*
X70187133Y-73175107D01*
X70201747Y-73155402D01*
X70218223Y-73137223D01*
X70236402Y-73120747D01*
X70256107Y-73106133D01*
X70277151Y-73093520D01*
X70299329Y-73083030D01*
X70322429Y-73074765D01*
X70346227Y-73068804D01*
X70370496Y-73065204D01*
X70395000Y-73064000D01*
X71845000Y-73064000D01*
X71869504Y-73065204D01*
X71869504Y-73065204D01*
G37*
D18*
G04 #@! TO.P,J24,1*
G04 #@! TO.N,SDA*
X71120000Y-73914000D03*
G04 #@! TD*
D22*
G04 #@! TO.P,TP1,1*
G04 #@! TO.N,AIN3*
X67310000Y-98044000D03*
G04 #@! TD*
G04 #@! TO.P,TP2,1*
G04 #@! TO.N,AIN2*
X64262000Y-98044000D03*
G04 #@! TD*
G04 #@! TO.P,TP3,1*
G04 #@! TO.N,AIN0*
X70866000Y-77724000D03*
G04 #@! TD*
G04 #@! TO.P,TP4,1*
G04 #@! TO.N,AIN1*
X70866000Y-87630000D03*
G04 #@! TD*
D21*
G04 #@! TO.P,He1,3*
G04 #@! TO.N,GND*
X70866000Y-91266000D03*
G04 #@! TO.P,He1,2*
G04 #@! TO.N,VDDA*
X70866000Y-93766000D03*
D17*
G04 #@! TD*
G04 #@! TO.N,AIN3*
G04 #@! TO.C,He1*
G36*
X71615504Y-95417204D02*
X71639773Y-95420804D01*
X71663571Y-95426765D01*
X71686671Y-95435030D01*
X71708849Y-95445520D01*
X71729893Y-95458133D01*
X71749598Y-95472747D01*
X71767777Y-95489223D01*
X71784253Y-95507402D01*
X71798867Y-95527107D01*
X71811480Y-95548151D01*
X71821970Y-95570329D01*
X71830235Y-95593429D01*
X71836196Y-95617227D01*
X71839796Y-95641496D01*
X71841000Y-95666000D01*
X71841000Y-96866000D01*
X71839796Y-96890504D01*
X71836196Y-96914773D01*
X71830235Y-96938571D01*
X71821970Y-96961671D01*
X71811480Y-96983849D01*
X71798867Y-97004893D01*
X71784253Y-97024598D01*
X71767777Y-97042777D01*
X71749598Y-97059253D01*
X71729893Y-97073867D01*
X71708849Y-97086480D01*
X71686671Y-97096970D01*
X71663571Y-97105235D01*
X71639773Y-97111196D01*
X71615504Y-97114796D01*
X71591000Y-97116000D01*
X70141000Y-97116000D01*
X70116496Y-97114796D01*
X70092227Y-97111196D01*
X70068429Y-97105235D01*
X70045329Y-97096970D01*
X70023151Y-97086480D01*
X70002107Y-97073867D01*
X69982402Y-97059253D01*
X69964223Y-97042777D01*
X69947747Y-97024598D01*
X69933133Y-97004893D01*
X69920520Y-96983849D01*
X69910030Y-96961671D01*
X69901765Y-96938571D01*
X69895804Y-96914773D01*
X69892204Y-96890504D01*
X69891000Y-96866000D01*
X69891000Y-95666000D01*
X69892204Y-95641496D01*
X69895804Y-95617227D01*
X69901765Y-95593429D01*
X69910030Y-95570329D01*
X69920520Y-95548151D01*
X69933133Y-95527107D01*
X69947747Y-95507402D01*
X69964223Y-95489223D01*
X69982402Y-95472747D01*
X70002107Y-95458133D01*
X70023151Y-95445520D01*
X70045329Y-95435030D01*
X70068429Y-95426765D01*
X70092227Y-95420804D01*
X70116496Y-95417204D01*
X70141000Y-95416000D01*
X71591000Y-95416000D01*
X71615504Y-95417204D01*
X71615504Y-95417204D01*
G37*
D18*
G04 #@! TO.P,He1,1*
G04 #@! TO.N,AIN3*
X70866000Y-96266000D03*
G04 #@! TD*
D21*
G04 #@! TO.P,J1,3*
G04 #@! TO.N,+VDC*
X70866000Y-54182000D03*
G04 #@! TO.P,J1,2*
G04 #@! TO.N,GND*
X70866000Y-56682000D03*
D17*
G04 #@! TD*
G04 #@! TO.N,VCC*
G04 #@! TO.C,J1*
G36*
X71615504Y-58333204D02*
X71639773Y-58336804D01*
X71663571Y-58342765D01*
X71686671Y-58351030D01*
X71708849Y-58361520D01*
X71729893Y-58374133D01*
X71749598Y-58388747D01*
X71767777Y-58405223D01*
X71784253Y-58423402D01*
X71798867Y-58443107D01*
X71811480Y-58464151D01*
X71821970Y-58486329D01*
X71830235Y-58509429D01*
X71836196Y-58533227D01*
X71839796Y-58557496D01*
X71841000Y-58582000D01*
X71841000Y-59782000D01*
X71839796Y-59806504D01*
X71836196Y-59830773D01*
X71830235Y-59854571D01*
X71821970Y-59877671D01*
X71811480Y-59899849D01*
X71798867Y-59920893D01*
X71784253Y-59940598D01*
X71767777Y-59958777D01*
X71749598Y-59975253D01*
X71729893Y-59989867D01*
X71708849Y-60002480D01*
X71686671Y-60012970D01*
X71663571Y-60021235D01*
X71639773Y-60027196D01*
X71615504Y-60030796D01*
X71591000Y-60032000D01*
X70141000Y-60032000D01*
X70116496Y-60030796D01*
X70092227Y-60027196D01*
X70068429Y-60021235D01*
X70045329Y-60012970D01*
X70023151Y-60002480D01*
X70002107Y-59989867D01*
X69982402Y-59975253D01*
X69964223Y-59958777D01*
X69947747Y-59940598D01*
X69933133Y-59920893D01*
X69920520Y-59899849D01*
X69910030Y-59877671D01*
X69901765Y-59854571D01*
X69895804Y-59830773D01*
X69892204Y-59806504D01*
X69891000Y-59782000D01*
X69891000Y-58582000D01*
X69892204Y-58557496D01*
X69895804Y-58533227D01*
X69901765Y-58509429D01*
X69910030Y-58486329D01*
X69920520Y-58464151D01*
X69933133Y-58443107D01*
X69947747Y-58423402D01*
X69964223Y-58405223D01*
X69982402Y-58388747D01*
X70002107Y-58374133D01*
X70023151Y-58361520D01*
X70045329Y-58351030D01*
X70068429Y-58342765D01*
X70092227Y-58336804D01*
X70116496Y-58333204D01*
X70141000Y-58332000D01*
X71591000Y-58332000D01*
X71615504Y-58333204D01*
X71615504Y-58333204D01*
G37*
D18*
G04 #@! TO.P,J1,1*
G04 #@! TO.N,VCC*
X70866000Y-59182000D03*
G04 #@! TD*
D16*
G04 #@! TO.P,J31,2*
G04 #@! TO.N,GND*
X66548000Y-59396000D03*
D17*
G04 #@! TD*
G04 #@! TO.N,VDDA*
G04 #@! TO.C,J31*
G36*
X67322504Y-56047204D02*
X67346773Y-56050804D01*
X67370571Y-56056765D01*
X67393671Y-56065030D01*
X67415849Y-56075520D01*
X67436893Y-56088133D01*
X67456598Y-56102747D01*
X67474777Y-56119223D01*
X67491253Y-56137402D01*
X67505867Y-56157107D01*
X67518480Y-56178151D01*
X67528970Y-56200329D01*
X67537235Y-56223429D01*
X67543196Y-56247227D01*
X67546796Y-56271496D01*
X67548000Y-56296000D01*
X67548000Y-57496000D01*
X67546796Y-57520504D01*
X67543196Y-57544773D01*
X67537235Y-57568571D01*
X67528970Y-57591671D01*
X67518480Y-57613849D01*
X67505867Y-57634893D01*
X67491253Y-57654598D01*
X67474777Y-57672777D01*
X67456598Y-57689253D01*
X67436893Y-57703867D01*
X67415849Y-57716480D01*
X67393671Y-57726970D01*
X67370571Y-57735235D01*
X67346773Y-57741196D01*
X67322504Y-57744796D01*
X67298000Y-57746000D01*
X65798000Y-57746000D01*
X65773496Y-57744796D01*
X65749227Y-57741196D01*
X65725429Y-57735235D01*
X65702329Y-57726970D01*
X65680151Y-57716480D01*
X65659107Y-57703867D01*
X65639402Y-57689253D01*
X65621223Y-57672777D01*
X65604747Y-57654598D01*
X65590133Y-57634893D01*
X65577520Y-57613849D01*
X65567030Y-57591671D01*
X65558765Y-57568571D01*
X65552804Y-57544773D01*
X65549204Y-57520504D01*
X65548000Y-57496000D01*
X65548000Y-56296000D01*
X65549204Y-56271496D01*
X65552804Y-56247227D01*
X65558765Y-56223429D01*
X65567030Y-56200329D01*
X65577520Y-56178151D01*
X65590133Y-56157107D01*
X65604747Y-56137402D01*
X65621223Y-56119223D01*
X65639402Y-56102747D01*
X65659107Y-56088133D01*
X65680151Y-56075520D01*
X65702329Y-56065030D01*
X65725429Y-56056765D01*
X65749227Y-56050804D01*
X65773496Y-56047204D01*
X65798000Y-56046000D01*
X67298000Y-56046000D01*
X67322504Y-56047204D01*
X67322504Y-56047204D01*
G37*
D18*
G04 #@! TO.P,J31,1*
G04 #@! TO.N,VDDA*
X66548000Y-56896000D03*
G04 #@! TD*
D14*
G04 #@! TO.P,A1,16*
G04 #@! TO.N,Net-(A1-Pad16)*
X62230000Y-91440000D03*
G04 #@! TO.P,A1,15*
G04 #@! TO.N,Net-(A1-Pad15)*
X46990000Y-91440000D03*
G04 #@! TO.P,A1,30*
G04 #@! TO.N,+VDC*
X62230000Y-55880000D03*
G04 #@! TO.P,A1,14*
G04 #@! TO.N,Net-(A1-Pad14)*
X46990000Y-88900000D03*
G04 #@! TO.P,A1,29*
G04 #@! TO.N,GND*
X62230000Y-58420000D03*
G04 #@! TO.P,A1,13*
G04 #@! TO.N,Net-(A1-Pad13)*
X46990000Y-86360000D03*
G04 #@! TO.P,A1,28*
G04 #@! TO.N,Net-(A1-Pad28)*
X62230000Y-60960000D03*
G04 #@! TO.P,A1,12*
G04 #@! TO.N,Net-(A1-Pad12)*
X46990000Y-83820000D03*
G04 #@! TO.P,A1,27*
G04 #@! TO.N,VCC*
X62230000Y-63500000D03*
G04 #@! TO.P,A1,11*
G04 #@! TO.N,Net-(A1-Pad11)*
X46990000Y-81280000D03*
G04 #@! TO.P,A1,26*
G04 #@! TO.N,Net-(A1-Pad26)*
X62230000Y-66040000D03*
G04 #@! TO.P,A1,10*
G04 #@! TO.N,Net-(A1-Pad10)*
X46990000Y-78740000D03*
G04 #@! TO.P,A1,25*
G04 #@! TO.N,Net-(A1-Pad25)*
X62230000Y-68580000D03*
G04 #@! TO.P,A1,9*
G04 #@! TO.N,Net-(A1-Pad9)*
X46990000Y-76200000D03*
G04 #@! TO.P,A1,24*
G04 #@! TO.N,SCL*
X62230000Y-71120000D03*
G04 #@! TO.P,A1,8*
G04 #@! TO.N,Net-(A1-Pad8)*
X46990000Y-73660000D03*
G04 #@! TO.P,A1,23*
G04 #@! TO.N,SDA*
X62230000Y-73660000D03*
G04 #@! TO.P,A1,7*
G04 #@! TO.N,Net-(A1-Pad7)*
X46990000Y-71120000D03*
G04 #@! TO.P,A1,22*
G04 #@! TO.N,Net-(A1-Pad22)*
X62230000Y-76200000D03*
G04 #@! TO.P,A1,6*
G04 #@! TO.N,Net-(A1-Pad6)*
X46990000Y-68580000D03*
G04 #@! TO.P,A1,21*
G04 #@! TO.N,Net-(A1-Pad21)*
X62230000Y-78740000D03*
G04 #@! TO.P,A1,5*
G04 #@! TO.N,Net-(A1-Pad5)*
X46990000Y-66040000D03*
G04 #@! TO.P,A1,20*
G04 #@! TO.N,Net-(A1-Pad20)*
X62230000Y-81280000D03*
G04 #@! TO.P,A1,4*
G04 #@! TO.N,Net-(A1-Pad4)*
X46990000Y-63500000D03*
G04 #@! TO.P,A1,19*
G04 #@! TO.N,Net-(A1-Pad19)*
X62230000Y-83820000D03*
G04 #@! TO.P,A1,3*
G04 #@! TO.N,Net-(A1-Pad3)*
X46990000Y-60960000D03*
G04 #@! TO.P,A1,18*
G04 #@! TO.N,Net-(A1-Pad18)*
X62230000Y-86360000D03*
G04 #@! TO.P,A1,2*
G04 #@! TO.N,Net-(A1-Pad2)*
X46990000Y-58420000D03*
G04 #@! TO.P,A1,17*
G04 #@! TO.N,Net-(A1-Pad17)*
X62230000Y-88900000D03*
D23*
G04 #@! TO.P,A1,1*
G04 #@! TO.N,Net-(A1-Pad1)*
X46990000Y-55880000D03*
G04 #@! TD*
D24*
G04 #@! TO.N,AIN2*
X63762001Y-97544001D02*
X64262000Y-98044000D01*
X63762001Y-93971999D02*
X63762001Y-97544001D01*
X65278000Y-92456000D02*
X63762001Y-93971999D01*
G04 #@! TO.N,VDDA*
X67818000Y-55626000D02*
X66548000Y-56896000D01*
X67818000Y-53340000D02*
X67818000Y-55626000D01*
X67453553Y-57801553D02*
X66548000Y-56896000D01*
X68905001Y-59253001D02*
X67453553Y-57801553D01*
X68905001Y-91930001D02*
X68905001Y-59253001D01*
X70741000Y-93766000D02*
X68905001Y-91930001D01*
X70866000Y-93766000D02*
X70741000Y-93766000D01*
G04 #@! TD*
M02*
