M48
;DRILL file {KiCad (5.0.1-3-g963ef8bb5)} date 2018 December 25, Tuesday 15:27:39
;FORMAT={-:-/ absolute / metric / decimal}
FMAT,2
METRIC,TZ
T1C0.500
T2C0.800
T3C0.950
T4C1.000
T5C1.118
%
G90
G05
M71
T1
X70.866Y-87.63
X64.262Y-98.044
X70.866Y-77.724
X67.31Y-98.044
T2
X56.896Y-83.693
X56.896Y-93.853
X48.006Y-97.282
X58.166Y-97.282
X49.276Y-51.689
X49.276Y-53.34
X49.276Y-63.246
X49.276Y-64.897
X67.818Y-51.689
X67.818Y-53.34
X67.818Y-63.246
X67.818Y-64.897
X57.15Y-54.61
X57.15Y-64.77
X53.086Y-83.693
X53.086Y-93.853
X46.99Y-55.88
X46.99Y-58.42
X46.99Y-60.96
X46.99Y-63.5
X46.99Y-66.04
X46.99Y-68.58
X46.99Y-71.12
X46.99Y-73.66
X46.99Y-76.2
X46.99Y-78.74
X46.99Y-81.28
X46.99Y-83.82
X46.99Y-86.36
X46.99Y-88.9
X46.99Y-91.44
X62.23Y-55.88
X62.23Y-58.42
X62.23Y-60.96
X62.23Y-63.5
X62.23Y-66.04
X62.23Y-68.58
X62.23Y-71.12
X62.23Y-73.66
X62.23Y-76.2
X62.23Y-78.74
X62.23Y-81.28
X62.23Y-83.82
X62.23Y-86.36
X62.23Y-88.9
X62.23Y-91.44
X53.086Y-54.61
X53.086Y-64.77
T3
X71.12Y-66.414
X71.12Y-68.914
X71.12Y-71.414
X71.12Y-73.914
X70.866Y-54.182
X70.866Y-56.682
X70.866Y-59.182
X70.866Y-91.266
X70.866Y-93.766
X70.866Y-96.266
T4
X65.278Y-92.456
X66.548Y-56.896
X66.548Y-59.396
X70.866Y-81.32
X70.866Y-83.82
X65.278Y-72.136
X65.278Y-74.676
X65.278Y-77.216
X65.278Y-79.756
X65.278Y-82.296
X65.278Y-84.836
X65.278Y-87.376
X65.278Y-89.916
X65.278Y-94.996
T5
X50.927Y-69.977
X50.927Y-72.517
X50.927Y-75.057
X50.927Y-77.597
X58.547Y-69.977
X58.547Y-72.517
X58.547Y-75.057
X58.547Y-77.597
T0
M30
