G04 #@! TF.GenerationSoftware,KiCad,Pcbnew,(5.0.1-3-g963ef8bb5)*
G04 #@! TF.CreationDate,2018-12-25T15:27:32+01:00*
G04 #@! TF.ProjectId,smarttrimix,736D6172747472696D69782E6B696361,rev?*
G04 #@! TF.SameCoordinates,Original*
G04 #@! TF.FileFunction,Legend,Top*
G04 #@! TF.FilePolarity,Positive*
%FSLAX46Y46*%
G04 Gerber Fmt 4.6, Leading zero omitted, Abs format (unit mm)*
G04 Created by KiCad (PCBNEW (5.0.1-3-g963ef8bb5)) date 2018 December 25, Tuesday 15:27:32*
%MOMM*%
%LPD*%
G01*
G04 APERTURE LIST*
%ADD10C,0.120000*%
%ADD11C,0.152400*%
%ADD12C,0.150000*%
%ADD13C,0.050000*%
G04 APERTURE END LIST*
D10*
G04 #@! TO.C,R2*
X56896000Y-92813000D02*
X56896000Y-92043000D01*
X56896000Y-84733000D02*
X56896000Y-85503000D01*
X58266000Y-92043000D02*
X58266000Y-85503000D01*
X55526000Y-92043000D02*
X58266000Y-92043000D01*
X55526000Y-85503000D02*
X55526000Y-92043000D01*
X58266000Y-85503000D02*
X55526000Y-85503000D01*
G04 #@! TO.C,R5*
X53086000Y-84733000D02*
X53086000Y-85503000D01*
X53086000Y-92813000D02*
X53086000Y-92043000D01*
X51716000Y-85503000D02*
X51716000Y-92043000D01*
X54456000Y-85503000D02*
X51716000Y-85503000D01*
X54456000Y-92043000D02*
X54456000Y-85503000D01*
X51716000Y-92043000D02*
X54456000Y-92043000D01*
G04 #@! TO.C,J22*
X73476000Y-86730000D02*
X73476000Y-84230000D01*
X70976000Y-86730000D02*
X73476000Y-86730000D01*
X71676000Y-79710000D02*
X73176000Y-79710000D01*
X71676000Y-78710000D02*
X71676000Y-79710000D01*
X71676000Y-85430000D02*
X73176000Y-85430000D01*
X71676000Y-86430000D02*
X71676000Y-85430000D01*
X70866000Y-79210000D02*
X70866000Y-78710000D01*
X69656000Y-79210000D02*
X70866000Y-79210000D01*
X69656000Y-85930000D02*
X69656000Y-79210000D01*
X70866000Y-85930000D02*
X69656000Y-85930000D01*
X70866000Y-86430000D02*
X70866000Y-85930000D01*
X69156000Y-78710000D02*
X69156000Y-86430000D01*
X73176000Y-78710000D02*
X69156000Y-78710000D01*
X73176000Y-86430000D02*
X73176000Y-78710000D01*
X69156000Y-86430000D02*
X73176000Y-86430000D01*
D11*
G04 #@! TO.C,U1*
X55041800Y-68707000D02*
G75*
G02X54432200Y-68707000I-304800J0D01*
G01*
X54432200Y-68707000D02*
X52070000Y-68707000D01*
X55041800Y-68707000D02*
X54432200Y-68707000D01*
X58216800Y-68707000D02*
X55041800Y-68707000D01*
X51257200Y-78867000D02*
X58216800Y-78867000D01*
D10*
G04 #@! TO.C,R3*
X49046000Y-97282000D02*
X49816000Y-97282000D01*
X57126000Y-97282000D02*
X56356000Y-97282000D01*
X49816000Y-98652000D02*
X56356000Y-98652000D01*
X49816000Y-95912000D02*
X49816000Y-98652000D01*
X56356000Y-95912000D02*
X49816000Y-95912000D01*
X56356000Y-98652000D02*
X56356000Y-95912000D01*
G04 #@! TO.C,R6*
X53086000Y-55650000D02*
X53086000Y-56420000D01*
X53086000Y-63730000D02*
X53086000Y-62960000D01*
X51716000Y-56420000D02*
X51716000Y-62960000D01*
X54456000Y-56420000D02*
X51716000Y-56420000D01*
X54456000Y-62960000D02*
X54456000Y-56420000D01*
X51716000Y-62960000D02*
X54456000Y-62960000D01*
G04 #@! TO.C,R7*
X57150000Y-55650000D02*
X57150000Y-56420000D01*
X57150000Y-63730000D02*
X57150000Y-62960000D01*
X55780000Y-56420000D02*
X55780000Y-62960000D01*
X58520000Y-56420000D02*
X55780000Y-56420000D01*
X58520000Y-62960000D02*
X58520000Y-56420000D01*
X55780000Y-62960000D02*
X58520000Y-62960000D01*
G04 #@! TO.C,J24*
X73730000Y-76824000D02*
X73730000Y-74324000D01*
X71230000Y-76824000D02*
X73730000Y-76824000D01*
X71930000Y-64804000D02*
X73430000Y-64804000D01*
X71930000Y-63804000D02*
X71930000Y-64804000D01*
X71930000Y-75524000D02*
X73430000Y-75524000D01*
X71930000Y-76524000D02*
X71930000Y-75524000D01*
X71120000Y-64304000D02*
X71120000Y-63804000D01*
X69910000Y-64304000D02*
X71120000Y-64304000D01*
X69910000Y-76024000D02*
X69910000Y-64304000D01*
X71120000Y-76024000D02*
X69910000Y-76024000D01*
X71120000Y-76524000D02*
X71120000Y-76024000D01*
X69410000Y-63804000D02*
X69410000Y-76524000D01*
X73430000Y-63804000D02*
X69410000Y-63804000D01*
X73430000Y-76524000D02*
X73430000Y-63804000D01*
X69410000Y-76524000D02*
X73430000Y-76524000D01*
G04 #@! TO.C,He1*
X73476000Y-99176000D02*
X73476000Y-96676000D01*
X70976000Y-99176000D02*
X73476000Y-99176000D01*
X71676000Y-89656000D02*
X73176000Y-89656000D01*
X71676000Y-88656000D02*
X71676000Y-89656000D01*
X71676000Y-97876000D02*
X73176000Y-97876000D01*
X71676000Y-98876000D02*
X71676000Y-97876000D01*
X70866000Y-89156000D02*
X70866000Y-88656000D01*
X69656000Y-89156000D02*
X70866000Y-89156000D01*
X69656000Y-98376000D02*
X69656000Y-89156000D01*
X70866000Y-98376000D02*
X69656000Y-98376000D01*
X70866000Y-98876000D02*
X70866000Y-98376000D01*
X69156000Y-88656000D02*
X69156000Y-98876000D01*
X73176000Y-88656000D02*
X69156000Y-88656000D01*
X73176000Y-98876000D02*
X73176000Y-88656000D01*
X69156000Y-98876000D02*
X73176000Y-98876000D01*
G04 #@! TO.C,J1*
X73476000Y-62092000D02*
X73476000Y-59592000D01*
X70976000Y-62092000D02*
X73476000Y-62092000D01*
X71676000Y-52572000D02*
X73176000Y-52572000D01*
X71676000Y-51572000D02*
X71676000Y-52572000D01*
X71676000Y-60792000D02*
X73176000Y-60792000D01*
X71676000Y-61792000D02*
X71676000Y-60792000D01*
X70866000Y-52072000D02*
X70866000Y-51572000D01*
X69656000Y-52072000D02*
X70866000Y-52072000D01*
X69656000Y-61292000D02*
X69656000Y-52072000D01*
X70866000Y-61292000D02*
X69656000Y-61292000D01*
X70866000Y-61792000D02*
X70866000Y-61292000D01*
X69156000Y-51572000D02*
X69156000Y-61792000D01*
X73176000Y-51572000D02*
X69156000Y-51572000D01*
X73176000Y-61792000D02*
X73176000Y-51572000D01*
X69156000Y-61792000D02*
X73176000Y-61792000D01*
G04 #@! TO.C,J31*
X63938000Y-53986000D02*
X63938000Y-56486000D01*
X66438000Y-53986000D02*
X63938000Y-53986000D01*
X65738000Y-61006000D02*
X64238000Y-61006000D01*
X65738000Y-62006000D02*
X65738000Y-61006000D01*
X65738000Y-55286000D02*
X64238000Y-55286000D01*
X65738000Y-54286000D02*
X65738000Y-55286000D01*
X66548000Y-61506000D02*
X66548000Y-62006000D01*
X67758000Y-61506000D02*
X66548000Y-61506000D01*
X67758000Y-54786000D02*
X67758000Y-61506000D01*
X66548000Y-54786000D02*
X67758000Y-54786000D01*
X66548000Y-54286000D02*
X66548000Y-54786000D01*
X68258000Y-62006000D02*
X68258000Y-54286000D01*
X64238000Y-62006000D02*
X68258000Y-62006000D01*
X64238000Y-54286000D02*
X64238000Y-62006000D01*
X68258000Y-54286000D02*
X64238000Y-54286000D01*
G04 #@! TO.C,A1*
X63630000Y-95380000D02*
X63630000Y-51940000D01*
X48260000Y-92710000D02*
X45590000Y-92710000D01*
X48260000Y-57150000D02*
X48260000Y-92710000D01*
X48260000Y-57150000D02*
X45590000Y-57150000D01*
X60960000Y-92710000D02*
X63630000Y-92710000D01*
X60960000Y-54610000D02*
X60960000Y-92710000D01*
X60960000Y-54610000D02*
X63630000Y-54610000D01*
X45590000Y-51940000D02*
X45590000Y-54610000D01*
X45590000Y-57150000D02*
X45590000Y-95380000D01*
X48260000Y-54610000D02*
X45590000Y-54610000D01*
X48260000Y-57150000D02*
X48260000Y-54610000D01*
G04 #@! TO.C,R2*
D12*
X57602380Y-90971666D02*
X57126190Y-91305000D01*
X57602380Y-91543095D02*
X56602380Y-91543095D01*
X56602380Y-91162142D01*
X56650000Y-91066904D01*
X56697619Y-91019285D01*
X56792857Y-90971666D01*
X56935714Y-90971666D01*
X57030952Y-91019285D01*
X57078571Y-91066904D01*
X57126190Y-91162142D01*
X57126190Y-91543095D01*
X56697619Y-90590714D02*
X56650000Y-90543095D01*
X56602380Y-90447857D01*
X56602380Y-90209761D01*
X56650000Y-90114523D01*
X56697619Y-90066904D01*
X56792857Y-90019285D01*
X56888095Y-90019285D01*
X57030952Y-90066904D01*
X57602380Y-90638333D01*
X57602380Y-90019285D01*
G04 #@! TO.C,R5*
X53538380Y-90971666D02*
X53062190Y-91305000D01*
X53538380Y-91543095D02*
X52538380Y-91543095D01*
X52538380Y-91162142D01*
X52586000Y-91066904D01*
X52633619Y-91019285D01*
X52728857Y-90971666D01*
X52871714Y-90971666D01*
X52966952Y-91019285D01*
X53014571Y-91066904D01*
X53062190Y-91162142D01*
X53062190Y-91543095D01*
X52538380Y-90066904D02*
X52538380Y-90543095D01*
X53014571Y-90590714D01*
X52966952Y-90543095D01*
X52919333Y-90447857D01*
X52919333Y-90209761D01*
X52966952Y-90114523D01*
X53014571Y-90066904D01*
X53109809Y-90019285D01*
X53347904Y-90019285D01*
X53443142Y-90066904D01*
X53490761Y-90114523D01*
X53538380Y-90209761D01*
X53538380Y-90447857D01*
X53490761Y-90543095D01*
X53443142Y-90590714D01*
G04 #@! TO.C,J22*
X67841880Y-82915023D02*
X68556166Y-82915023D01*
X68699023Y-82962642D01*
X68794261Y-83057880D01*
X68841880Y-83200738D01*
X68841880Y-83295976D01*
X67937119Y-82486452D02*
X67889500Y-82438833D01*
X67841880Y-82343595D01*
X67841880Y-82105500D01*
X67889500Y-82010261D01*
X67937119Y-81962642D01*
X68032357Y-81915023D01*
X68127595Y-81915023D01*
X68270452Y-81962642D01*
X68841880Y-82534071D01*
X68841880Y-81915023D01*
X67937119Y-81534071D02*
X67889500Y-81486452D01*
X67841880Y-81391214D01*
X67841880Y-81153119D01*
X67889500Y-81057880D01*
X67937119Y-81010261D01*
X68032357Y-80962642D01*
X68127595Y-80962642D01*
X68270452Y-81010261D01*
X68841880Y-81581690D01*
X68841880Y-80962642D01*
G04 #@! TO.C,U1*
D13*
X53486302Y-73142061D02*
X53486302Y-74470927D01*
X53564471Y-74627264D01*
X53642640Y-74705432D01*
X53798977Y-74783601D01*
X54111651Y-74783601D01*
X54267988Y-74705432D01*
X54346157Y-74627264D01*
X54424325Y-74470927D01*
X54424325Y-73142061D01*
X56065865Y-74783601D02*
X55127842Y-74783601D01*
X55596854Y-74783601D02*
X55596854Y-73142061D01*
X55440517Y-73376567D01*
X55284180Y-73532904D01*
X55127842Y-73611072D01*
X50242225Y-79238045D02*
X51336605Y-80879615D01*
X51336605Y-79238045D02*
X50242225Y-80879615D01*
X52040135Y-80879615D02*
X52352815Y-80879615D01*
X52509155Y-80801445D01*
X52587325Y-80723275D01*
X52743665Y-80488765D01*
X52821835Y-80176085D01*
X52821835Y-79550725D01*
X52743665Y-79394385D01*
X52665495Y-79316215D01*
X52509155Y-79238045D01*
X52196475Y-79238045D01*
X52040135Y-79316215D01*
X51961965Y-79394385D01*
X51883795Y-79550725D01*
X51883795Y-79941575D01*
X51961965Y-80097915D01*
X52040135Y-80176085D01*
X52196475Y-80254255D01*
X52509155Y-80254255D01*
X52665495Y-80176085D01*
X52743665Y-80097915D01*
X52821835Y-79941575D01*
X54463405Y-80723275D02*
X54385235Y-80801445D01*
X54150725Y-80879615D01*
X53994385Y-80879615D01*
X53759875Y-80801445D01*
X53603535Y-80645105D01*
X53525365Y-80488765D01*
X53447195Y-80176085D01*
X53447195Y-79941575D01*
X53525365Y-79628895D01*
X53603535Y-79472555D01*
X53759875Y-79316215D01*
X53994385Y-79238045D01*
X54150725Y-79238045D01*
X54385235Y-79316215D01*
X54463405Y-79394385D01*
X56026805Y-80879615D02*
X55088765Y-80879615D01*
X55557785Y-80879615D02*
X55557785Y-79238045D01*
X55401445Y-79472555D01*
X55245105Y-79628895D01*
X55088765Y-79707065D01*
X57043015Y-79238045D02*
X57199355Y-79238045D01*
X57355695Y-79316215D01*
X57433865Y-79394385D01*
X57512035Y-79550725D01*
X57590205Y-79863405D01*
X57590205Y-80254255D01*
X57512035Y-80566935D01*
X57433865Y-80723275D01*
X57355695Y-80801445D01*
X57199355Y-80879615D01*
X57043015Y-80879615D01*
X56886675Y-80801445D01*
X56808505Y-80723275D01*
X56730335Y-80566935D01*
X56652165Y-80254255D01*
X56652165Y-79863405D01*
X56730335Y-79550725D01*
X56808505Y-79394385D01*
X56886675Y-79316215D01*
X57043015Y-79238045D01*
X58215565Y-79394385D02*
X58293735Y-79316215D01*
X58450075Y-79238045D01*
X58840925Y-79238045D01*
X58997265Y-79316215D01*
X59075435Y-79394385D01*
X59153605Y-79550725D01*
X59153605Y-79707065D01*
X59075435Y-79941575D01*
X58137395Y-80879615D01*
X59153605Y-80879615D01*
G04 #@! TO.C,R3*
D12*
X50887333Y-97734380D02*
X50554000Y-97258190D01*
X50315904Y-97734380D02*
X50315904Y-96734380D01*
X50696857Y-96734380D01*
X50792095Y-96782000D01*
X50839714Y-96829619D01*
X50887333Y-96924857D01*
X50887333Y-97067714D01*
X50839714Y-97162952D01*
X50792095Y-97210571D01*
X50696857Y-97258190D01*
X50315904Y-97258190D01*
X51220666Y-96734380D02*
X51839714Y-96734380D01*
X51506380Y-97115333D01*
X51649238Y-97115333D01*
X51744476Y-97162952D01*
X51792095Y-97210571D01*
X51839714Y-97305809D01*
X51839714Y-97543904D01*
X51792095Y-97639142D01*
X51744476Y-97686761D01*
X51649238Y-97734380D01*
X51363523Y-97734380D01*
X51268285Y-97686761D01*
X51220666Y-97639142D01*
G04 #@! TO.C,R6*
X53538380Y-61888666D02*
X53062190Y-62222000D01*
X53538380Y-62460095D02*
X52538380Y-62460095D01*
X52538380Y-62079142D01*
X52586000Y-61983904D01*
X52633619Y-61936285D01*
X52728857Y-61888666D01*
X52871714Y-61888666D01*
X52966952Y-61936285D01*
X53014571Y-61983904D01*
X53062190Y-62079142D01*
X53062190Y-62460095D01*
X52538380Y-61031523D02*
X52538380Y-61222000D01*
X52586000Y-61317238D01*
X52633619Y-61364857D01*
X52776476Y-61460095D01*
X52966952Y-61507714D01*
X53347904Y-61507714D01*
X53443142Y-61460095D01*
X53490761Y-61412476D01*
X53538380Y-61317238D01*
X53538380Y-61126761D01*
X53490761Y-61031523D01*
X53443142Y-60983904D01*
X53347904Y-60936285D01*
X53109809Y-60936285D01*
X53014571Y-60983904D01*
X52966952Y-61031523D01*
X52919333Y-61126761D01*
X52919333Y-61317238D01*
X52966952Y-61412476D01*
X53014571Y-61460095D01*
X53109809Y-61507714D01*
G04 #@! TO.C,R7*
X57602380Y-61888666D02*
X57126190Y-62222000D01*
X57602380Y-62460095D02*
X56602380Y-62460095D01*
X56602380Y-62079142D01*
X56650000Y-61983904D01*
X56697619Y-61936285D01*
X56792857Y-61888666D01*
X56935714Y-61888666D01*
X57030952Y-61936285D01*
X57078571Y-61983904D01*
X57126190Y-62079142D01*
X57126190Y-62460095D01*
X56602380Y-61555333D02*
X56602380Y-60888666D01*
X57602380Y-61317238D01*
G04 #@! TO.C,J24*
X67968880Y-69961023D02*
X68683166Y-69961023D01*
X68826023Y-70008642D01*
X68921261Y-70103880D01*
X68968880Y-70246738D01*
X68968880Y-70341976D01*
X68064119Y-69532452D02*
X68016500Y-69484833D01*
X67968880Y-69389595D01*
X67968880Y-69151500D01*
X68016500Y-69056261D01*
X68064119Y-69008642D01*
X68159357Y-68961023D01*
X68254595Y-68961023D01*
X68397452Y-69008642D01*
X68968880Y-69580071D01*
X68968880Y-68961023D01*
X68302214Y-68103880D02*
X68968880Y-68103880D01*
X67921261Y-68341976D02*
X68635547Y-68580071D01*
X68635547Y-67961023D01*
G04 #@! TO.C,He1*
X68518380Y-94956476D02*
X67518380Y-94956476D01*
X67994571Y-94956476D02*
X67994571Y-94385047D01*
X68518380Y-94385047D02*
X67518380Y-94385047D01*
X68470761Y-93527904D02*
X68518380Y-93623142D01*
X68518380Y-93813619D01*
X68470761Y-93908857D01*
X68375523Y-93956476D01*
X67994571Y-93956476D01*
X67899333Y-93908857D01*
X67851714Y-93813619D01*
X67851714Y-93623142D01*
X67899333Y-93527904D01*
X67994571Y-93480285D01*
X68089809Y-93480285D01*
X68185047Y-93956476D01*
X68518380Y-92527904D02*
X68518380Y-93099333D01*
X68518380Y-92813619D02*
X67518380Y-92813619D01*
X67661238Y-92908857D01*
X67756476Y-93004095D01*
X67804095Y-93099333D01*
G04 #@! TO.C,J1*
X68032380Y-56848333D02*
X68746666Y-56848333D01*
X68889523Y-56895952D01*
X68984761Y-56991190D01*
X69032380Y-57134047D01*
X69032380Y-57229285D01*
X69032380Y-55848333D02*
X69032380Y-56419761D01*
X69032380Y-56134047D02*
X68032380Y-56134047D01*
X68175238Y-56229285D01*
X68270476Y-56324523D01*
X68318095Y-56419761D01*
G04 #@! TO.C,J31*
X63968380Y-58975523D02*
X64682666Y-58975523D01*
X64825523Y-59023142D01*
X64920761Y-59118380D01*
X64968380Y-59261238D01*
X64968380Y-59356476D01*
X63968380Y-58594571D02*
X63968380Y-57975523D01*
X64349333Y-58308857D01*
X64349333Y-58166000D01*
X64396952Y-58070761D01*
X64444571Y-58023142D01*
X64539809Y-57975523D01*
X64777904Y-57975523D01*
X64873142Y-58023142D01*
X64920761Y-58070761D01*
X64968380Y-58166000D01*
X64968380Y-58451714D01*
X64920761Y-58546952D01*
X64873142Y-58594571D01*
X64968380Y-57023142D02*
X64968380Y-57594571D01*
X64968380Y-57308857D02*
X63968380Y-57308857D01*
X64111238Y-57404095D01*
X64206476Y-57499333D01*
X64254095Y-57594571D01*
G04 #@! TO.C,A1*
X46275714Y-53506666D02*
X46751904Y-53506666D01*
X46180476Y-53792380D02*
X46513809Y-52792380D01*
X46847142Y-53792380D01*
X47704285Y-53792380D02*
X47132857Y-53792380D01*
X47418571Y-53792380D02*
X47418571Y-52792380D01*
X47323333Y-52935238D01*
X47228095Y-53030476D01*
X47132857Y-53078095D01*
X49442666Y-92233142D02*
X49442666Y-91756952D01*
X49728380Y-92328380D02*
X48728380Y-91995047D01*
X49728380Y-91661714D01*
X49728380Y-91328380D02*
X49061714Y-91328380D01*
X49252190Y-91328380D02*
X49156952Y-91280761D01*
X49109333Y-91233142D01*
X49061714Y-91137904D01*
X49061714Y-91042666D01*
X49728380Y-90280761D02*
X48728380Y-90280761D01*
X49680761Y-90280761D02*
X49728380Y-90376000D01*
X49728380Y-90566476D01*
X49680761Y-90661714D01*
X49633142Y-90709333D01*
X49537904Y-90756952D01*
X49252190Y-90756952D01*
X49156952Y-90709333D01*
X49109333Y-90661714D01*
X49061714Y-90566476D01*
X49061714Y-90376000D01*
X49109333Y-90280761D01*
X49061714Y-89376000D02*
X49728380Y-89376000D01*
X49061714Y-89804571D02*
X49585523Y-89804571D01*
X49680761Y-89756952D01*
X49728380Y-89661714D01*
X49728380Y-89518857D01*
X49680761Y-89423619D01*
X49633142Y-89376000D01*
X49728380Y-88899809D02*
X49061714Y-88899809D01*
X48728380Y-88899809D02*
X48776000Y-88947428D01*
X48823619Y-88899809D01*
X48776000Y-88852190D01*
X48728380Y-88899809D01*
X48823619Y-88899809D01*
X49061714Y-88423619D02*
X49728380Y-88423619D01*
X49156952Y-88423619D02*
X49109333Y-88376000D01*
X49061714Y-88280761D01*
X49061714Y-88137904D01*
X49109333Y-88042666D01*
X49204571Y-87995047D01*
X49728380Y-87995047D01*
X49728380Y-87376000D02*
X49680761Y-87471238D01*
X49633142Y-87518857D01*
X49537904Y-87566476D01*
X49252190Y-87566476D01*
X49156952Y-87518857D01*
X49109333Y-87471238D01*
X49061714Y-87376000D01*
X49061714Y-87233142D01*
X49109333Y-87137904D01*
X49156952Y-87090285D01*
X49252190Y-87042666D01*
X49537904Y-87042666D01*
X49633142Y-87090285D01*
X49680761Y-87137904D01*
X49728380Y-87233142D01*
X49728380Y-87376000D01*
X49823619Y-86852190D02*
X49823619Y-86090285D01*
X49728380Y-85852190D02*
X48728380Y-85852190D01*
X49728380Y-85280761D01*
X48728380Y-85280761D01*
X49728380Y-84376000D02*
X49204571Y-84376000D01*
X49109333Y-84423619D01*
X49061714Y-84518857D01*
X49061714Y-84709333D01*
X49109333Y-84804571D01*
X49680761Y-84376000D02*
X49728380Y-84471238D01*
X49728380Y-84709333D01*
X49680761Y-84804571D01*
X49585523Y-84852190D01*
X49490285Y-84852190D01*
X49395047Y-84804571D01*
X49347428Y-84709333D01*
X49347428Y-84471238D01*
X49299809Y-84376000D01*
X49061714Y-83899809D02*
X49728380Y-83899809D01*
X49156952Y-83899809D02*
X49109333Y-83852190D01*
X49061714Y-83756952D01*
X49061714Y-83614095D01*
X49109333Y-83518857D01*
X49204571Y-83471238D01*
X49728380Y-83471238D01*
X49728380Y-82852190D02*
X49680761Y-82947428D01*
X49633142Y-82995047D01*
X49537904Y-83042666D01*
X49252190Y-83042666D01*
X49156952Y-82995047D01*
X49109333Y-82947428D01*
X49061714Y-82852190D01*
X49061714Y-82709333D01*
X49109333Y-82614095D01*
X49156952Y-82566476D01*
X49252190Y-82518857D01*
X49537904Y-82518857D01*
X49633142Y-82566476D01*
X49680761Y-82614095D01*
X49728380Y-82709333D01*
X49728380Y-82852190D01*
G04 #@! TD*
M02*
